# xmcd CD database file
#
# Track frame offsets:
#	150
#	20019
#	42560
#	93602
#	109385
#	136847
#	160723
#	184670
#	207131
#	225598
#	244073
#	263173
#	280035
#	293623
#	312158
#
# Disc length: 4469 seconds
#
# Revision: 1
# Processed by: cddbd v1.5.2PL0 Copyright (c) Steve Scherf et al.
# Submitted via: CDex 1.51
#
DISCID=cf11730f
DTITLE=Religiosa - Pdre marcelo
DYEAR=2008
DGENRE=Alternative
TTITLE0=sj,dgjhg
TTITLE1=kdhckh
TTITLE2=lcfjaldclkfj
TTITLE3=sahkh
TTITLE4=slhcljlk
TTITLE5=lsjljk
TTITLE6=dbcjjhgjg
TTITLE7=khckhakh
TTITLE8=çajlkjkjjkl
TTITLE9=kakjhhkh
TTITLE10=Misericordia
TTITLE11=adjkçhkjagkjg
TTITLE12=skjhkjh
TTITLE13=CHave do coração
TTITLE14=DBKGKGK
EXTD=YEAR: 2008
EXTT0=
EXTT1=
EXTT2=
EXTT3=
EXTT4=
EXTT5=
EXTT6=
EXTT7=
EXTT8=
EXTT9=
EXTT10=
EXTT11=
EXTT12=
EXTT13=
EXTT14=
PLAYORDER=
